<svg width="160" height="280" viewBox="0 0 160 280" fill="none" xmlns="http://www.w3.org/2000/svg">
<path d="M158.778 8.02694V271.491C158.778 275.332 155.967 278.517 152.595 278.517H7.18374C3.71712 278.517 1 275.426 1 271.491V8.02694C1 4.18555 3.81081 1 7.18374 1H152.595C156.061 1 158.778 4.09185 158.778 8.02694Z" fill="white" stroke="#C4C4C4" stroke-width="1.5"/>
<path d="M84.7616 267.462C84.7616 267.743 84.7616 268.118 84.6679 268.399C84.5742 268.68 84.4805 269.055 84.3868 269.336C84.2931 269.617 84.1058 269.898 83.9184 270.179C83.731 270.46 83.5436 270.647 83.3562 270.928C83.1689 271.116 82.8878 271.397 82.6067 271.491C82.3256 271.678 82.0445 271.772 81.7635 271.959C81.4824 272.053 81.2013 272.146 80.8265 272.24C80.5454 272.334 80.1707 272.334 79.8896 272.334C79.6085 272.334 79.2338 272.334 78.9527 272.24C78.6716 272.146 78.2968 272.053 78.0158 271.959C77.7347 271.865 77.4536 271.678 77.1725 271.491C76.8914 271.303 76.704 271.116 76.423 270.928C76.2356 270.741 75.9545 270.46 75.8608 270.179C75.6734 269.898 75.5798 269.617 75.3924 269.336C75.205 269.055 75.205 268.774 75.1113 268.399C75.0176 268.118 75.0176 267.743 75.0176 267.462C75.0176 267.181 75.0176 266.806 75.1113 266.525C75.205 266.244 75.2987 265.869 75.3924 265.588C75.4861 265.307 75.6734 265.026 75.8608 264.745C76.0482 264.464 76.2356 264.276 76.423 263.995C76.6104 263.808 76.8914 263.527 77.1725 263.433C77.4536 263.246 77.7347 263.152 78.0158 262.965C78.2968 262.871 78.5779 262.777 78.9527 262.683C79.2338 262.59 79.6085 262.59 79.8896 262.59C80.1707 262.59 80.5454 262.59 80.8265 262.683C81.1076 262.777 81.4824 262.871 81.7635 262.965C82.0445 263.058 82.3256 263.246 82.6067 263.433C82.8878 263.62 83.0752 263.808 83.3562 263.995C83.5436 264.183 83.8247 264.464 83.9184 264.745C84.0121 265.026 84.1994 265.307 84.3868 265.588C84.5742 265.869 84.5742 266.15 84.6679 266.525C84.6679 266.806 84.7616 267.181 84.7616 267.462Z" stroke="#C4C4C4" stroke-miterlimit="10"/>
</svg>
